<svg width="136" height="54" viewBox="0 0 136 54" fill="none" xmlns="http://www.w3.org/2000/svg">
<path d="M14.024 53.576C10.3547 53.576 7.496 52.808 5.448 51.272C3.44267 49.736 2.03467 47.6667 1.224 45.064C0.456 42.4613 0.072 39.56 0.072 36.36V18.056C0.072 14.5573 0.456 11.5067 1.224 8.904C2.03467 6.30133 3.44267 4.296 5.448 2.888C7.496 1.43733 10.3547 0.711998 14.024 0.711998C17.2667 0.711998 19.8267 1.30933 21.704 2.504C23.624 3.69866 24.9893 5.40533 25.8 7.624C26.6533 9.84267 27.08 12.5093 27.08 15.624V19.72H20.232V16.072C20.232 14.152 20.1253 12.4667 19.912 11.016C19.7413 9.52266 19.2293 8.37066 18.376 7.56C17.5227 6.74933 16.0933 6.344 14.088 6.344C12.04 6.344 10.5467 6.792 9.608 7.688C8.66933 8.54133 8.05067 9.77866 7.752 11.4C7.496 12.9787 7.368 14.8347 7.368 16.968V37.512C7.368 40.1147 7.58133 42.184 8.008 43.72C8.43467 45.2133 9.13867 46.28 10.12 46.92C11.1013 47.56 12.424 47.88 14.088 47.88C16.0507 47.88 17.4587 47.4533 18.312 46.6C19.1653 45.704 19.6987 44.488 19.912 42.952C20.1253 41.416 20.232 39.624 20.232 37.576V33.736H27.08V37.576C27.08 40.7333 26.696 43.528 25.928 45.96C25.16 48.3493 23.8373 50.2267 21.96 51.592C20.0827 52.9147 17.4373 53.576 14.024 53.576ZM43.5695 53.512C40.8388 53.512 38.6842 52.9573 37.1055 51.848C35.5268 50.7387 34.3962 49.16 33.7135 47.112C33.0735 45.064 32.7535 42.6533 32.7535 39.88V29.128C32.7535 26.3547 33.0735 23.944 33.7135 21.896C34.3962 19.848 35.5268 18.2693 37.1055 17.16C38.6842 16.0507 40.8388 15.496 43.5695 15.496C46.3002 15.496 48.4335 16.0507 49.9695 17.16C51.5482 18.2693 52.6575 19.848 53.2975 21.896C53.9802 23.944 54.3215 26.3547 54.3215 29.128V39.88C54.3215 42.6533 53.9802 45.064 53.2975 47.112C52.6575 49.16 51.5482 50.7387 49.9695 51.848C48.4335 52.9573 46.3002 53.512 43.5695 53.512ZM43.5695 48.456C44.8922 48.456 45.8095 48.072 46.3215 47.304C46.8762 46.536 47.1962 45.5333 47.2815 44.296C47.4095 43.016 47.4735 41.6933 47.4735 40.328V28.744C47.4735 27.336 47.4095 26.0133 47.2815 24.776C47.1962 23.5387 46.8762 22.536 46.3215 21.768C45.8095 20.9573 44.8922 20.552 43.5695 20.552C42.2468 20.552 41.3082 20.9573 40.7535 21.768C40.1988 22.536 39.8575 23.5387 39.7295 24.776C39.6442 26.0133 39.6015 27.336 39.6015 28.744V40.328C39.6015 41.6933 39.6442 43.016 39.7295 44.296C39.8575 45.5333 40.1988 46.536 40.7535 47.304C41.3082 48.072 42.2468 48.456 43.5695 48.456ZM67.237 53.512C65.7863 53.512 64.5063 53.1067 63.397 52.296C62.2877 51.4427 61.413 50.376 60.773 49.096C60.133 47.7733 59.813 46.3867 59.813 44.936C59.813 42.632 60.197 40.6907 60.965 39.112C61.733 37.5333 62.7783 36.2107 64.101 35.144C65.4663 34.0347 67.0237 33.0747 68.773 32.264C70.565 31.4533 72.4423 30.664 74.405 29.896V27.272C74.405 25.7787 74.3197 24.5413 74.149 23.56C73.9783 22.5787 73.6157 21.8533 73.061 21.384C72.549 20.872 71.7597 20.616 70.693 20.616C69.7543 20.616 68.9863 20.8293 68.389 21.256C67.8343 21.6827 67.429 22.3013 67.173 23.112C66.917 23.88 66.789 24.7973 66.789 25.864V27.72L60.005 27.464C60.0903 23.368 61.029 20.36 62.821 18.44C64.613 16.4773 67.3863 15.496 71.141 15.496C74.8103 15.496 77.413 16.4987 78.949 18.504C80.485 20.5093 81.253 23.4107 81.253 27.208V44.104C81.253 45.256 81.2743 46.3653 81.317 47.432C81.4023 48.4987 81.4877 49.5013 81.573 50.44C81.701 51.336 81.8077 52.1893 81.893 53H75.621C75.493 52.3173 75.3223 51.464 75.109 50.44C74.9383 49.3733 74.8103 48.4133 74.725 47.56C74.2983 49.0107 73.4663 50.376 72.229 51.656C71.0343 52.8933 69.3703 53.512 67.237 53.512ZM69.925 47.624C70.6077 47.624 71.2477 47.432 71.845 47.048C72.4423 46.664 72.9757 46.2373 73.445 45.768C73.9143 45.256 74.2343 44.8507 74.405 44.552V34.056C73.3383 34.6533 72.3357 35.2507 71.397 35.848C70.4583 36.4453 69.6263 37.0853 68.901 37.768C68.2183 38.408 67.6637 39.1547 67.237 40.008C66.853 40.8187 66.661 41.7573 66.661 42.824C66.661 44.3173 66.9383 45.4907 67.493 46.344C68.0477 47.1973 68.8583 47.624 69.925 47.624ZM97.943 53.512C94.9137 53.512 92.6097 52.9147 91.031 51.72C89.495 50.4827 88.4497 48.7547 87.895 46.536C87.383 44.3173 87.127 41.736 87.127 38.792V30.28C87.127 27.1653 87.4043 24.52 87.959 22.344C88.5137 20.1253 89.559 18.44 91.095 17.288C92.6737 16.0933 94.9563 15.496 97.943 15.496C100.631 15.496 102.7 15.944 104.151 16.84C105.644 17.6933 106.668 18.9947 107.223 20.744C107.778 22.4507 108.055 24.584 108.055 27.144V29.32H101.847V27.08C101.847 25.4587 101.74 24.1787 101.527 23.24C101.314 22.3013 100.93 21.6187 100.375 21.192C99.8203 20.7653 99.031 20.552 98.007 20.552C96.8977 20.552 96.0443 20.808 95.447 21.32C94.8497 21.832 94.4443 22.7067 94.231 23.944C94.0603 25.1387 93.975 26.7813 93.975 28.872V40.52C93.975 43.6773 94.2737 45.7893 94.871 46.856C95.4683 47.9227 96.535 48.456 98.071 48.456C99.223 48.456 100.055 48.2 100.567 47.688C101.122 47.1333 101.463 46.3653 101.591 45.384C101.762 44.4027 101.847 43.2933 101.847 42.056V39.048H108.055V41.608C108.055 44.0827 107.756 46.216 107.159 48.008C106.604 49.8 105.58 51.1653 104.087 52.104C102.636 53.0427 100.588 53.512 97.943 53.512ZM114.336 53V1.16H121.184V19.848C122.421 18.6533 123.808 17.6293 125.344 16.776C126.88 15.9227 128.586 15.496 130.464 15.496C131.914 15.496 133.024 15.88 133.792 16.648C134.602 17.416 135.157 18.376 135.456 19.528C135.797 20.68 135.968 21.8533 135.968 23.048V53H129.12V25.032C129.12 23.7093 128.928 22.6853 128.544 21.96C128.16 21.2347 127.37 20.872 126.176 20.872C125.365 20.872 124.512 21.1067 123.616 21.576C122.762 22.0453 121.952 22.6213 121.184 23.304V53H114.336Z" fill="black"/>
</svg>
