<svg width="30" height="33" viewBox="0 0 30 33" fill="none" xmlns="http://www.w3.org/2000/svg">
<path fill-rule="evenodd" clip-rule="evenodd" d="M5.1235 27.0413C12.7583 25.9379 18.0151 26.0328 25.66 27.0799C26.2136 27.1593 26.7195 27.4342 27.0842 27.8538C27.4489 28.2734 27.6479 28.8094 27.6442 29.3628C27.6442 29.8925 27.4602 30.4067 27.1278 30.8083C26.5485 31.5086 25.955 32.1972 25.3477 32.8739H28.2934C28.4785 32.6554 28.6648 32.4325 28.8533 32.2063C29.5149 31.4037 29.8758 30.3996 29.875 29.3639C29.875 27.1295 28.2265 25.2041 25.9656 24.8951C18.14 23.8237 12.6702 23.7211 4.80115 24.8587C2.51685 25.1886 0.875 27.1439 0.875 29.3937C0.875 30.3923 1.20404 31.3799 1.82754 32.1798C2.01158 32.416 2.19338 32.6477 2.37408 32.875H5.24842C4.68339 32.2058 4.13228 31.5252 3.59542 30.8337C3.27638 30.4197 3.10427 29.9132 3.10577 29.3926C3.10577 28.2043 3.96908 27.2079 5.1235 27.0413ZM15.375 16.3227C16.2538 16.3227 17.1241 16.1515 17.936 15.8188C18.748 15.4861 19.4857 14.9984 20.1072 14.3837C20.7286 13.7689 21.2216 13.0391 21.5579 12.2358C21.8942 11.4326 22.0673 10.5717 22.0673 9.70228C22.0673 8.83287 21.8942 7.97197 21.5579 7.16874C21.2216 6.36551 20.7286 5.63568 20.1072 5.02091C19.4857 4.40614 18.748 3.91848 17.936 3.58577C17.1241 3.25306 16.2538 3.08182 15.375 3.08182C13.6001 3.08182 11.8979 3.77933 10.6428 5.02091C9.38777 6.26249 8.68269 7.94643 8.68269 9.70228C8.68269 11.4581 9.38777 13.1421 10.6428 14.3837C11.8979 15.6252 13.6001 16.3227 15.375 16.3227ZM15.375 18.5296C17.7415 18.5296 20.0112 17.5996 21.6846 15.9441C23.358 14.2887 24.2981 12.0434 24.2981 9.70228C24.2981 7.36114 23.358 5.11589 21.6846 3.46045C20.0112 1.80501 17.7415 0.875 15.375 0.875C13.0085 0.875 10.7388 1.80501 9.06543 3.46045C7.39203 5.11589 6.45192 7.36114 6.45192 9.70228C6.45192 12.0434 7.39203 14.2887 9.06543 15.9441C10.7388 17.5996 13.0085 18.5296 15.375 18.5296Z" fill="black"/>
</svg>
