<svg width="54" height="53" viewBox="0 0 54 53" fill="none" xmlns="http://www.w3.org/2000/svg">
<path d="M38.4795 33.3333H36.0856L35.2371 32.5151C38.2068 29.0606 39.9946 24.5758 39.9946 19.697C39.9946 8.81818 31.1765 0 20.2977 0C9.41889 0 0.600708 8.81818 0.600708 19.697C0.600708 30.5758 9.41889 39.3939 20.2977 39.3939C25.1765 39.3939 29.6613 37.6061 33.1159 34.6364L33.934 35.4848V37.8788L49.0856 53L53.6007 48.4848L38.4795 33.3333ZM20.2977 33.3333C12.7522 33.3333 6.66131 27.2424 6.66131 19.697C6.66131 12.1515 12.7522 6.06061 20.2977 6.06061C27.8431 6.06061 33.934 12.1515 33.934 19.697C33.934 27.2424 27.8431 33.3333 20.2977 33.3333Z" fill="black" fill-opacity="0.5"/>
</svg>
